<svg width="96" height="112" viewBox="0 0 96 112" fill="none" xmlns="http://www.w3.org/2000/svg">
<path d="M88.0572 48.3643C88.0523 48.1466 88.0116 47.929 87.9348 47.721L71.015 1.93818C70.7263 1.15684 69.9808 0.637817 69.148 0.637817C68.3152 0.637817 67.5696 1.15684 67.2809 1.9384L56.7478 30.4378C51.1484 29.5514 45.3176 29.5553 39.7241 30.4339L29.1932 1.9384C28.9045 1.15684 28.1588 0.637817 27.326 0.637817C26.4932 0.637817 25.7475 1.15684 25.4588 1.9384L8.53921 47.721C8.46546 47.9212 8.42459 48.1293 8.41681 48.3371C3.2013 55.096 0.453735 62.8755 0.453735 70.929C0.453519 93.2237 21.885 111.362 48.2267 111.362C74.5685 111.362 96 93.2237 96 70.9292C96 62.8872 93.2591 55.1174 88.0572 48.3643Z" fill="#333333"/>
<path d="M48.2267 107.381C24.0798 107.381 4.43462 91.0289 4.43462 70.9292C4.43462 63.3363 7.20272 55.9883 12.4386 49.6824C12.8925 49.1362 13.0179 48.3937 12.7787 47.7346L27.3258 8.37079L36.5641 33.3694C36.9013 34.2831 37.8461 34.8157 38.8035 34.6349C44.9578 33.4628 51.4981 33.4589 57.6679 34.6388C58.6186 34.8177 59.571 34.287 59.9073 33.3733L69.1476 8.37079L83.6851 47.7056C83.4323 48.3723 83.5549 49.1286 84.0147 49.6826C89.2505 55.9905 92.0186 63.3366 92.0186 70.9294C92.0189 91.0289 72.3737 107.381 48.2267 107.381Z" fill="#D8D8D8"/>
<path d="M30.3328 59.6292C32.5285 59.6292 34.3139 57.8427 34.3139 55.6481C34.3139 53.4535 32.5285 51.667 30.3328 51.667C28.1371 51.667 26.3517 53.4535 26.3517 55.6481C26.3517 57.8429 28.1371 59.6292 30.3328 59.6292Z" fill="#333333"/>
<path d="M66.1622 51.667C63.9665 51.667 62.1811 53.4535 62.1811 55.6481C62.1811 57.8427 63.9665 59.6292 66.1622 59.6292C68.3578 59.6292 70.1433 57.8427 70.1433 55.6481C70.1433 53.4535 68.3578 51.667 66.1622 51.667Z" fill="#333333"/>
<path d="M66.1622 79.5347C66.1622 83.9261 62.5902 87.497 58.1999 87.497C53.9435 87.497 50.4862 84.1324 50.2773 79.9262L55.9993 68.4818C56.3075 67.8657 56.2744 67.1328 55.9117 66.5456C55.5493 65.9585 54.9087 65.601 54.2186 65.601H42.2753C41.5852 65.601 40.9447 65.9587 40.5822 66.5456C40.2198 67.1325 40.1867 67.8654 40.4946 68.4818L46.2166 79.9262C46.0077 84.1324 42.5504 87.497 38.294 87.497C33.9037 87.497 30.3318 83.9261 30.3318 79.5347V77.5443H26.3507V79.5347C26.3507 86.1207 31.7081 91.4781 38.294 91.4781C42.4459 91.4781 46.1059 89.3464 48.2467 86.1226C50.3874 89.3464 54.0474 91.4781 58.1993 91.4781C64.7852 91.4781 70.1426 86.1207 70.1426 79.5347V77.5443H66.1615V79.5347H66.1622Z" fill="#333333"/>
<path d="M50.9979 69.5821L48.2471 75.0833L45.4965 69.5821H50.9979Z" fill="#D8D8D8"/>
</svg>
