<svg width="104" height="104" viewBox="0 0 104 104" fill="none" xmlns="http://www.w3.org/2000/svg">
<path d="M51.9999 44.4902L51.6988 44.263C48.2962 41.696 44.1736 40.3069 39.8338 40.3069C34.5567 40.3069 29.5978 42.3609 25.8663 46.0923L51.9999 44.4902ZM51.9999 44.4902L52.301 44.263C55.7036 41.696 59.8269 40.3069 64.1667 40.3069C69.4439 40.3069 74.4019 42.3609 78.1334 46.0931L78.1335 46.0932C81.865 49.8239 83.9189 54.782 83.9189 60.0591C83.9189 65.3371 81.865 70.2952 78.1327 74.0267L78.1327 74.0267L53.8006 98.3597L53.8003 98.3599C53.3037 98.8572 52.6527 99.1058 51.9999 99.1058C51.3472 99.1058 50.6969 98.8573 50.1992 98.3596L25.8663 74.0267C18.1659 66.3263 18.1659 53.7944 25.8663 46.0924L51.9999 44.4902Z" fill="#DEB959" stroke="#353535"/>
<path d="M28.8977 9.81115L28.8977 9.81117C26.7273 12.705 25.52 16.5244 25.52 20.5696C25.52 24.6155 26.7273 28.4349 28.8977 31.3288L28.8978 31.3288C31.2199 34.4255 34.4915 36.1704 37.8581 36.1704C41.2239 36.1704 44.4955 34.4256 46.8185 31.3289L28.8977 9.81115ZM28.8977 9.81115C31.2207 6.71358 34.4916 4.96875 37.8581 4.96875C41.2231 4.96875 44.4956 6.71361 46.8185 9.81115C48.9881 12.705 50.1947 16.5236 50.1947 20.5696C50.1947 24.6156 48.9881 28.4349 46.8185 31.3288L28.8977 9.81115Z" fill="#DEB959" stroke="#353535"/>
<path d="M75.102 9.81115L75.102 9.81117C77.2724 12.705 78.479 16.5236 78.479 20.5696C78.479 24.6156 77.2724 28.435 75.1021 31.3288C72.7791 34.4256 69.5082 36.1704 66.1416 36.1704C62.7759 36.1704 59.5043 34.4256 57.1813 31.3289C55.0117 28.435 53.8051 24.6156 53.8051 20.5696C53.8051 16.5244 55.0117 12.705 57.1813 9.81115C59.5042 6.71359 62.7759 4.96875 66.1416 4.96875C69.5074 4.96875 72.779 6.71359 75.102 9.81115Z" fill="#2C5680" stroke="#353535"/>
<path d="M100.601 23.3158L100.601 23.3158C102.463 25.7989 103.5 29.0717 103.5 32.5357C103.5 36.0005 102.463 39.2733 100.601 41.7556L100.601 41.7557C98.5829 44.4476 95.7322 45.9609 92.7946 45.9609C89.857 45.9609 87.0063 44.4476 84.9879 41.7557L84.9878 41.7555C83.1252 39.2733 82.0886 35.9998 82.0886 32.5357C82.0886 29.0717 83.1252 25.7981 84.9879 23.3151L84.9879 23.315C87.0062 20.6239 89.857 19.1105 92.7946 19.1105C95.7322 19.1105 98.5829 20.6239 100.601 23.3158Z" fill="#2C5680" stroke="#353535"/>
<path d="M3.39923 23.3158L3.3993 23.3158C5.41766 20.6238 8.2684 19.1105 11.2052 19.1105C14.1436 19.1105 16.9943 20.6239 19.0126 23.3149C20.8747 25.7989 21.9119 29.0718 21.9119 32.5357C21.9119 36.0005 20.8746 39.2733 19.0127 41.7556L19.0126 41.7557C16.9943 44.4475 14.1436 45.9609 11.2052 45.9609C8.2684 45.9609 5.41766 44.4476 3.3993 41.7557L3.39919 41.7555C1.53657 39.2733 0.5 35.9998 0.5 32.5357C0.5 29.0717 1.53655 25.7989 3.39923 23.3158Z" fill="#DEB959" stroke="#353535"/>
<path d="M78.1335 46.0931L78.1336 46.0932C81.865 49.8239 83.9189 54.7828 83.9189 60.0591C83.9189 65.3371 81.865 70.2952 78.1335 74.0267L53.8006 98.3596C53.4848 98.6755 53.107 98.8898 52.7054 99.0041V43.9705C56.0285 41.5923 59.9964 40.3069 64.1668 40.3069C69.4439 40.3069 74.402 42.3609 78.1335 46.0931Z" fill="#2C5680" stroke="#353535"/>
</svg>
